<?xml version="1.0" encoding="UTF-8"?>
<svg id="Capa_3" xmlns="http://www.w3.org/2000/svg" viewBox="0 0 709.31 464.54">
  <defs>
    <style>
      .cls-1 {
        fill: #e6205f;
      }

      .cls-2 {
        fill: #6cab48;
      }
    </style>
  </defs>
  <ellipse class="cls-1" cx="354.65" cy="247.04" rx="36.57" ry="32.84"/>
  <path class="cls-1" d="M137.36,106.58c8.65,12.35,20.29,32.19,27.17,58.87,9.01,34.91,5.47,64.46,2.26,80.75-.5,4.5-6.44,67.81,41.51,105.66,28.36,22.38,59.93,23.52,70.94,23.4-11.33-2.43-37.81-9.75-60.38-33.21-35.12-36.5-32.96-83.16-32.45-91.32,3.6-13.03,7.08-31.49,6.04-53.58-.64-13.47-2.81-25.19-5.28-34.72,17.79,5.14,25.2,13.2,28.68,19.62,4.77,8.81,2.55,14.16,5.28,40.75,1.51,14.73,2.38,23.19,5.28,33.21,5.09,17.56,13.42,29.47,20.38,39.24,7.57,10.63,20.46,26.16,40.75,40.75-11.17-12.41-26.71-32.94-36.98-61.89-17.28-48.68-9.1-91.44-4.53-109.43-8.22-9.68-20.28-21.69-36.98-32.45-28.22-18.18-55.63-23.73-71.7-25.66Z"/>
  <path class="cls-2" d="M261.88,412.99c-15.51,4.15-59.41,13.66-98.87-9.81-15.68-9.33-24.83-20.39-30.94-27.92-32.37-39.87-21.18-69.17-51.32-142.64-18.67-45.5-32.41-57.3-42.26-63.4-1.9-1.18-3.57-2.12-38.49-19.62h0c13.42-5.29,39.3-13.38,71.7-9.81,21.63,2.38,51.66,5.69,68.68,26.41,28.91,35.21-10.43,83.38,15.09,142.64,10.67,24.78,28.27,41.26,41.51,51.32-13.18-7.44-33.55-21.33-47.55-45.28-31.49-53.89-3.2-111.6-36.23-138.87-6.85-5.66-19.58-12.67-43.77-11.32,3.62,2.69,8.84,6.93,14.34,12.83,24.18,25.94,28.33,56.74,32.45,79.24,8.97,48.96,15.61,85.22,33.21,109.43,14.5,19.95,44.22,42.42,112.45,46.79Z"/>
  <path class="cls-1" d="M428.55,297.5c-5.78,10.51-24.08,39.03-73.83,55.05-.03.02-.06.03-.1.03t-.03-.02c-49.77-16-68.05-44.54-73.83-55.05-28.31-51.48-5.3-123.63,22.64-164.52,15.06-22.04,31-34.19,42.25-66.42,6.02-17.2,8.29-33.2,8.94-46.27v62.09s.05.06.08.1c-61.38,79.86-75.71,163.62-41.46,204.46,6.92,8.26,19.09,18.66,41.38,24.88h.02c22.35-6.19,34.56-16.63,41.49-24.89,34.25-40.84,19.94-124.59-41.43-204.44.02-.02.03-.05.05-.06V20.27c.65,13.07,2.92,29.09,8.92,46.28,11.27,32.23,27.21,44.37,42.27,66.42,27.94,40.88,50.95,113.04,22.64,164.52Z"/>
  <path class="cls-1" d="M571.95,106.55c-8.65,12.35-20.29,32.19-27.17,58.87-9.01,34.91-5.47,64.46-2.26,80.75.5,4.5,6.44,67.81-41.51,105.66-28.36,22.38-59.93,23.52-70.94,23.4,11.33-2.43,37.81-9.75,60.38-33.21,35.12-36.5,32.96-83.16,32.45-91.32-3.6-13.03-7.08-31.49-6.04-53.58.64-13.47,2.81-25.19,5.28-34.72-17.79,5.14-25.2,13.2-28.68,19.62-4.77,8.81-2.55,14.16-5.28,40.75-1.51,14.73-2.38,23.19-5.28,33.21-5.09,17.56-13.42,29.47-20.38,39.24-7.57,10.63-20.46,26.16-40.75,40.75,11.17-12.41,26.71-32.94,36.98-61.89,17.28-48.68,9.1-91.44,4.53-109.43,8.22-9.68,20.28-21.69,36.98-32.45,28.22-18.18,55.63-23.73,71.7-25.66Z"/>
  <path class="cls-2" d="M447.42,412.97c15.51,4.15,59.41,13.66,98.87-9.81,15.68-9.33,24.83-20.39,30.94-27.92,32.37-39.87,21.18-69.17,51.32-142.64,18.67-45.5,32.41-57.3,42.26-63.4,1.9-1.18,3.57-2.12,38.49-19.62h0c-13.42-5.29-39.3-13.38-71.7-9.81-21.63,2.38-51.66,5.69-68.68,26.41-28.91,35.21,10.43,83.38-15.09,142.64-10.67,24.78-28.27,41.26-41.51,51.32,13.18-7.44,33.55-21.33,47.55-45.28,31.49-53.89,3.2-111.6,36.23-138.87,6.85-5.66,19.58-12.67,43.77-11.32-3.62,2.69-8.84,6.93-14.34,12.83-24.18,25.94-28.33,56.74-32.45,79.24-8.97,48.96-15.61,85.22-33.21,109.43-14.5,19.95-44.22,42.42-112.45,46.79Z"/>
</svg>